<svg width="16" height="16" viewBox="0 0 16 16" fill="none" xmlns="http://www.w3.org/2000/svg">
<g clip-path="url(#clip0_2023_1394)">
<path d="M7.9749 0.5C4.6999 0.5 1.9249 2.6 0.899902 5.5H15.0499C14.0249 2.6 11.2499 0.5 7.9749 0.5Z" fill="#3E4347"/>
<path d="M7.9749 15.5C11.2499 15.5 14.0249 13.425 15.0499 10.5H0.899902C1.9249 13.425 4.6999 15.5 7.9749 15.5Z" fill="#FFE62E"/>
<path d="M0.900098 5.5C0.625098 6.275 0.475098 7.125 0.475098 8C0.475098 8.875 0.625098 9.725 0.900098 10.5H15.0501C15.3251 9.725 15.4751 8.875 15.4751 8C15.4751 7.125 15.3251 6.275 15.0501 5.5H0.900098Z" fill="#ED4C5C"/>
</g>
<defs>
<clipPath id="clip0_2023_1394">
<rect width="16" height="16" fill="white"/>
</clipPath>
</defs>
</svg>
