<svg width="16" height="16" viewBox="0 0 16 16" fill="none" xmlns="http://www.w3.org/2000/svg">
<g clip-path="url(#clip0_2023_1411)">
<path d="M15.2752 6.25C14.5002 2.95 11.5252 0.5 8.0002 0.5H7.7502V6.25H15.2752ZM4.2502 1.5C2.5002 2.525 1.1752 4.225 0.700195 6.25H4.2502V1.5ZM0.700195 9.75C1.1752 11.775 2.5002 13.475 4.2502 14.5V9.75H0.700195ZM7.7502 15.5H8.0002C11.5502 15.5 14.5002 13.05 15.3002 9.75H7.7502V15.5Z" fill="#F9F9F9"/>
<path d="M15.275 6.25H7.75V0.5C6.475 0.55 5.275 0.9 4.25 1.5V6.25H0.7C0.575 6.8 0.5 7.4 0.5 8C0.5 8.6 0.575 9.2 0.7 9.75H4.25V14.5C5.275 15.1 6.475 15.45 7.75 15.5V9.75H15.3C15.425 9.2 15.5 8.6 15.5 8C15.5 7.4 15.425 6.8 15.275 6.25Z" fill="#428BC1"/>
</g>
<defs>
<clipPath id="clip0_2023_1411">
<rect width="16" height="16" fill="white"/>
</clipPath>
</defs>
</svg>
