<svg width="24" height="24" viewBox="0 0 24 24" fill="none" xmlns="http://www.w3.org/2000/svg">
<g clip-path="url(#clip0_5514_7048)">
<path d="M11.925 0.75C7.04998 0.75 2.88748 3.9 1.34998 8.25H22.575C21 3.9 16.8375 0.75 11.925 0.75Z" fill="#F2B200"/>
<path d="M11.925 23.25C16.8375 23.25 21 20.1375 22.5375 15.75H1.34998C2.88748 20.1375 7.04998 23.25 11.925 23.25Z" fill="#83BF4F"/>
<path d="M1.35002 8.25C0.937524 9.4125 0.712524 10.6875 0.712524 12C0.712524 13.3125 0.937524 14.5875 1.35002 15.75H22.575C22.9875 14.5875 23.2125 13.3125 23.2125 12C23.2125 10.6875 22.9875 9.4125 22.575 8.25H1.35002Z" fill="white"/>
<path d="M11.925 15C13.5819 15 14.925 13.6569 14.925 12C14.925 10.3431 13.5819 9 11.925 9C10.2682 9 8.92505 10.3431 8.92505 12C8.92505 13.6569 10.2682 15 11.925 15Z" fill="#428BC1"/>
<path d="M11.925 14.625C13.3748 14.625 14.55 13.4497 14.55 12C14.55 10.5503 13.3748 9.375 11.925 9.375C10.4753 9.375 9.30005 10.5503 9.30005 12C9.30005 13.4497 10.4753 14.625 11.925 14.625Z" fill="white"/>
<path d="M10.9501 9.75C11.0536 9.75 11.1376 9.66605 11.1376 9.5625C11.1376 9.45895 11.0536 9.375 10.9501 9.375C10.8465 9.375 10.7626 9.45895 10.7626 9.5625C10.7626 9.66605 10.8465 9.75 10.9501 9.75Z" fill="#428BC1"/>
<path d="M10.35 10.0875C10.4535 10.0875 10.5375 10.0036 10.5375 9.90002C10.5375 9.79647 10.4535 9.71252 10.35 9.71252C10.2464 9.71252 10.1625 9.79647 10.1625 9.90002C10.1625 10.0036 10.2464 10.0875 10.35 10.0875Z" fill="#428BC1"/>
<path d="M9.86255 10.575C9.9661 10.575 10.05 10.491 10.05 10.3875C10.05 10.2839 9.9661 10.2 9.86255 10.2C9.759 10.2 9.67505 10.2839 9.67505 10.3875C9.67505 10.491 9.759 10.575 9.86255 10.575Z" fill="#428BC1"/>
<path d="M9.52502 11.175C9.62858 11.175 9.71252 11.0911 9.71252 10.9875C9.71252 10.884 9.62858 10.8 9.52502 10.8C9.42147 10.8 9.33752 10.884 9.33752 10.9875C9.33752 11.0911 9.42147 11.175 9.52502 11.175Z" fill="#428BC1"/>
<path d="M9.33752 11.85C9.44108 11.85 9.52502 11.766 9.52502 11.6625C9.52502 11.5589 9.44108 11.475 9.33752 11.475C9.23397 11.475 9.15002 11.5589 9.15002 11.6625C9.15002 11.766 9.23397 11.85 9.33752 11.85Z" fill="#428BC1"/>
<path d="M9.33752 12.525C9.44108 12.525 9.52502 12.4411 9.52502 12.3375C9.52502 12.234 9.44108 12.15 9.33752 12.15C9.23397 12.15 9.15002 12.234 9.15002 12.3375C9.15002 12.4411 9.23397 12.525 9.33752 12.525Z" fill="#428BC1"/>
<path d="M9.52502 13.2C9.62858 13.2 9.71252 13.116 9.71252 13.0125C9.71252 12.9089 9.62858 12.825 9.52502 12.825C9.42147 12.825 9.33752 12.9089 9.33752 13.0125C9.33752 13.116 9.42147 13.2 9.52502 13.2Z" fill="#428BC1"/>
<path d="M9.86255 13.8C9.9661 13.8 10.05 13.7161 10.05 13.6125C10.05 13.509 9.9661 13.425 9.86255 13.425C9.759 13.425 9.67505 13.509 9.67505 13.6125C9.67505 13.7161 9.759 13.8 9.86255 13.8Z" fill="#428BC1"/>
<path d="M10.35 14.2875C10.4535 14.2875 10.5375 14.2035 10.5375 14.1C10.5375 13.9964 10.4535 13.9125 10.35 13.9125C10.2464 13.9125 10.1625 13.9964 10.1625 14.1C10.1625 14.2035 10.2464 14.2875 10.35 14.2875Z" fill="#428BC1"/>
<path d="M10.9501 14.625C11.0536 14.625 11.1376 14.5411 11.1376 14.4375C11.1376 14.3339 11.0536 14.25 10.9501 14.25C10.8465 14.25 10.7626 14.3339 10.7626 14.4375C10.7626 14.5411 10.8465 14.625 10.9501 14.625Z" fill="#428BC1"/>
<path d="M11.5875 14.775C11.6911 14.775 11.775 14.6911 11.775 14.5875C11.775 14.484 11.6911 14.4 11.5875 14.4C11.484 14.4 11.4 14.484 11.4 14.5875C11.4 14.6911 11.484 14.775 11.5875 14.775Z" fill="#428BC1"/>
<path d="M12.1125 14.625C12.1125 14.5125 12.1875 14.4375 12.2625 14.4C12.375 14.4 12.45 14.475 12.4875 14.55C12.4875 14.6625 12.4125 14.7375 12.3375 14.775C12.1875 14.8125 12.1125 14.7375 12.1125 14.625Z" fill="#428BC1"/>
<path d="M12.9375 14.625C13.0411 14.625 13.125 14.5411 13.125 14.4375C13.125 14.3339 13.0411 14.25 12.9375 14.25C12.8339 14.25 12.75 14.3339 12.75 14.4375C12.75 14.5411 12.8339 14.625 12.9375 14.625Z" fill="#428BC1"/>
<path d="M13.5375 14.2875C13.641 14.2875 13.725 14.2035 13.725 14.1C13.725 13.9964 13.641 13.9125 13.5375 13.9125C13.4339 13.9125 13.35 13.9964 13.35 14.1C13.35 14.2035 13.4339 14.2875 13.5375 14.2875Z" fill="#428BC1"/>
<path d="M14.025 13.8C14.1286 13.8 14.2125 13.7161 14.2125 13.6125C14.2125 13.509 14.1286 13.425 14.025 13.425C13.9215 13.425 13.8375 13.509 13.8375 13.6125C13.8375 13.7161 13.9215 13.8 14.025 13.8Z" fill="#428BC1"/>
<path d="M14.3625 13.2C14.4661 13.2 14.55 13.116 14.55 13.0125C14.55 12.9089 14.4661 12.825 14.3625 12.825C14.259 12.825 14.175 12.9089 14.175 13.0125C14.175 13.116 14.259 13.2 14.3625 13.2Z" fill="#428BC1"/>
<path d="M14.55 12.525C14.6536 12.525 14.7375 12.4411 14.7375 12.3375C14.7375 12.234 14.6536 12.15 14.55 12.15C14.4465 12.15 14.3625 12.234 14.3625 12.3375C14.3625 12.4411 14.4465 12.525 14.55 12.525Z" fill="#428BC1"/>
<path d="M14.5501 11.85C14.4376 11.85 14.3626 11.775 14.3251 11.7C14.3251 11.5875 14.4001 11.5125 14.4751 11.475C14.5876 11.475 14.6626 11.55 14.7001 11.625C14.7376 11.7375 14.6626 11.8125 14.5501 11.85Z" fill="#428BC1"/>
<path d="M14.3625 11.175C14.4661 11.175 14.55 11.0911 14.55 10.9875C14.55 10.884 14.4661 10.8 14.3625 10.8C14.259 10.8 14.175 10.884 14.175 10.9875C14.175 11.0911 14.259 11.175 14.3625 11.175Z" fill="#428BC1"/>
<path d="M14.025 10.575C14.1286 10.575 14.2125 10.491 14.2125 10.3875C14.2125 10.2839 14.1286 10.2 14.025 10.2C13.9215 10.2 13.8375 10.2839 13.8375 10.3875C13.8375 10.491 13.9215 10.575 14.025 10.575Z" fill="#428BC1"/>
<path d="M13.5375 10.0875C13.641 10.0875 13.725 10.0036 13.725 9.90002C13.725 9.79647 13.641 9.71252 13.5375 9.71252C13.4339 9.71252 13.35 9.79647 13.35 9.90002C13.35 10.0036 13.4339 10.0875 13.5375 10.0875Z" fill="#428BC1"/>
<path d="M13.125 9.63749C13.0875 9.74999 12.975 9.78749 12.8625 9.74999C12.75 9.71249 12.7125 9.59999 12.75 9.48749C12.7875 9.37499 12.9 9.33749 13.0125 9.37499C13.125 9.44999 13.1625 9.56249 13.125 9.63749ZM12.45 9.41249C12.45 9.52499 12.3375 9.59999 12.225 9.56249C12.1125 9.56249 12.0375 9.44999 12.075 9.33749C12.075 9.22499 12.1875 9.14999 12.3 9.18749C12.4125 9.22499 12.4875 9.33749 12.45 9.41249ZM11.775 9.37499C11.775 9.48749 11.7 9.56249 11.625 9.59999C11.5125 9.59999 11.4375 9.52499 11.4 9.44999C11.4 9.33749 11.475 9.26249 11.55 9.22499C11.6625 9.18749 11.775 9.26249 11.775 9.37499Z" fill="#428BC1"/>
<path d="M11.925 12.5625C12.2357 12.5625 12.4875 12.3107 12.4875 12C12.4875 11.6893 12.2357 11.4375 11.925 11.4375C11.6144 11.4375 11.3625 11.6893 11.3625 12C11.3625 12.3107 11.6144 12.5625 11.925 12.5625Z" fill="#428BC1"/>
<path d="M11.925 9.375L11.85 10.9875L11.925 12L12.0375 10.9875L11.925 9.375ZM11.25 9.45L11.5875 11.0625L11.925 12L11.775 10.9875L11.25 9.45Z" fill="#428BC1"/>
<path d="M10.6125 9.71252L11.3625 11.175L11.925 12L11.5125 11.0625L10.6125 9.71252ZM10.0875 10.125L11.175 11.3625L11.925 12L11.2875 11.2125L10.0875 10.125Z" fill="#428BC1"/>
<path d="M9.67505 10.6875L11.025 11.5875L11.925 12L11.1 11.4L9.67505 10.6875Z" fill="#428BC1"/>
<path d="M9.41255 11.325L10.95 11.8125L11.925 12L10.9875 11.6625L9.41255 11.325ZM9.30005 12L10.95 12.075L11.925 12L10.95 11.925L9.30005 12Z" fill="#428BC1"/>
<path d="M9.41248 12.675L10.9875 12.3375L11.925 12L10.95 12.1875L9.41248 12.675ZM9.67498 13.3125L11.1 12.6L11.925 12L11.025 12.4125L9.67498 13.3125Z" fill="#428BC1"/>
<path d="M10.0875 13.8375L11.2875 12.7875L11.925 12L11.175 12.6375L10.0875 13.8375ZM10.6125 14.2875L11.5125 12.9L11.925 12L11.3625 12.825L10.6125 14.2875Z" fill="#428BC1"/>
<path d="M11.25 14.55L11.775 13.0125L11.925 12L11.5875 12.9375L11.25 14.55ZM11.925 14.625L12.0375 13.0125L11.925 12L11.85 13.0125L11.925 14.625ZM12.6 14.55L12.3 12.9375L11.925 12L12.1125 13.0125L12.6 14.55Z" fill="#428BC1"/>
<path d="M13.2375 14.2875L12.525 12.825L11.925 12L12.375 12.9375L13.2375 14.2875ZM13.8 13.8375L12.7125 12.6375L11.925 12L12.6 12.7875L13.8 13.8375Z" fill="#428BC1"/>
<path d="M14.2125 13.3125L12.8625 12.4125L11.925 12L12.75 12.6L14.2125 13.3125ZM14.475 12.675L12.9375 12.1875L11.925 12L12.9 12.3375L14.475 12.675ZM14.55 12L12.9375 11.8875L11.925 12L12.9375 12.075L14.55 12ZM14.475 11.325L12.9 11.6625L11.925 12L12.9375 11.8125L14.475 11.325Z" fill="#428BC1"/>
<path d="M14.2125 10.6875L12.75 11.4L11.925 12L12.8625 11.5875L14.2125 10.6875ZM13.8 10.1625L12.6 11.2125L11.925 12L12.7125 11.3625L13.8 10.1625Z" fill="#428BC1"/>
<path d="M13.2375 9.71252L12.375 11.1L11.925 12L12.525 11.175L13.2375 9.71252Z" fill="#428BC1"/>
<path d="M12.6375 9.44995L12.1125 10.9875L11.925 12L12.3 11.0625L12.6375 9.44995Z" fill="#428BC1"/>
</g>
<defs>
<clipPath id="clip0_5514_7048">
<rect width="24" height="24" fill="white"/>
</clipPath>
</defs>
</svg>
