<svg width="16" height="16" viewBox="0 0 16 16" fill="none" xmlns="http://www.w3.org/2000/svg">
<g clip-path="url(#clip0_2023_1421)">
<path d="M0.424805 7.99999C0.424805 11.275 2.5248 14.05 5.4248 15.075V0.924988C2.5248 1.94999 0.424805 4.72499 0.424805 7.99999Z" fill="#75A843"/>
<path d="M15.4248 7.99999C15.4248 4.72499 13.3248 1.94999 10.4248 0.924988V15.075C13.3498 14.05 15.4248 11.275 15.4248 7.99999Z" fill="#ED4C5C"/>
<path d="M5.4248 15.075C6.1998 15.35 7.0498 15.5 7.9248 15.5C8.7998 15.5 9.6498 15.35 10.4248 15.075V0.925C9.6498 0.65 8.7998 0.5 7.9248 0.5C7.0498 0.5 6.1998 0.65 5.4248 0.925V15.075Z" fill="white"/>
</g>
<defs>
<clipPath id="clip0_2023_1421">
<rect width="16" height="16" fill="white"/>
</clipPath>
</defs>
</svg>
