<svg width="16" height="16" viewBox="0 0 16 16" fill="none" xmlns="http://www.w3.org/2000/svg">
<g clip-path="url(#clip0_2023_1428)">
<path d="M8 15.5C12.1421 15.5 15.5 12.1421 15.5 8C15.5 3.85786 12.1421 0.5 8 0.5C3.85786 0.5 0.5 3.85786 0.5 8C0.5 12.1421 3.85786 15.5 8 15.5Z" fill="#F5F5F5"/>
<path d="M5.84993 8.42498C6.54993 8.89998 7.52493 8.69998 7.99993 7.99998C8.47493 7.29998 9.42493 7.09998 10.1499 7.57498C10.8249 8.02498 11.0249 8.89998 10.6499 9.57498C11.4749 8.17498 11.0999 6.34998 9.69993 5.42498C8.27493 4.47498 6.34993 4.84998 5.39993 6.27498C5.37493 6.32498 5.34993 6.37498 5.32493 6.39998C4.97493 7.12498 5.19993 7.97498 5.84993 8.42498Z" fill="#ED4C5C"/>
<path d="M10.1501 7.57499C9.45011 7.09999 8.47511 7.29999 8.00011 7.99999C7.52511 8.69999 6.57511 8.89999 5.85011 8.42499C5.17511 7.97499 4.97511 7.09999 5.35011 6.42499C4.50011 7.82499 4.90011 9.64999 6.30011 10.575C7.72511 11.525 9.65011 11.15 10.6001 9.72499C10.6251 9.67499 10.6501 9.62499 10.6751 9.59999C11.0251 8.87499 10.8001 8.02499 10.1501 7.57499Z" fill="#428BC1"/>
<path d="M1.9501 5.82502L3.6751 3.25002L3.5001 3.12502L3.3251 3.02502L1.6001 5.60002L1.7751 5.70002L1.9501 5.82502ZM2.4251 6.15002L2.6001 6.25002L4.3001 3.67502L4.1501 3.57502L3.9751 3.45002L2.2501 6.02502L2.4251 6.15002ZM4.6001 3.87502L2.9001 6.45002L3.0751 6.57502L3.2501 6.67502L4.9501 4.10002L4.7751 4.00002L4.6001 3.87502ZM12.1251 10.625L12.3001 10.75L13.1001 9.55002L12.9251 9.42502L12.7501 9.32502L11.9501 10.525L12.1251 10.625ZM14.0501 10.175L13.2501 11.375L13.4251 11.5L13.6001 11.6L14.4001 10.4L14.2251 10.3L14.0501 10.175ZM12.9501 11.175L13.7501 9.97502L13.5751 9.85002L13.4001 9.75002L12.6001 10.95L12.7751 11.05L12.9501 11.175ZM12.0251 10.8L11.8501 10.7L11.0501 11.9L11.2251 12L11.4001 12.125L12.2001 10.925L12.0251 10.8ZM12.6501 11.225L12.5001 11.125L11.7001 12.325L11.8501 12.425L12.0251 12.55L12.8251 11.35L12.6501 11.225ZM13.1251 11.55L12.3251 12.75L12.5001 12.875L12.6751 12.975L13.4751 11.775L13.3001 11.65L13.1251 11.55ZM1.7751 10.3L1.6001 10.4L3.3251 12.975L3.5001 12.875L3.6751 12.75L1.9501 10.175L1.7751 10.3ZM3.3501 11.225L3.1751 11.35L3.9751 12.55L4.1501 12.425L4.3001 12.325L3.5001 11.125L3.3501 11.225ZM3.0751 9.42502L2.9001 9.55002L4.6001 12.125L4.7751 12L4.9501 11.9L3.2501 9.32502L3.0751 9.42502ZM2.2501 9.97502L3.0501 11.175L3.2251 11.05L3.4001 10.95L2.6001 9.75002L2.4251 9.85002L2.2501 9.97502ZM13.3001 4.35002L13.4751 4.22502L12.6751 3.02502L12.5001 3.12502L12.3251 3.25002L13.1251 4.45002L13.3001 4.35002ZM12.0251 5.20002L12.2001 5.07502L11.4001 3.87502L11.2251 4.00002L11.0501 4.10002L11.8501 5.30002L12.0251 5.20002ZM13.2501 4.62502L14.0501 5.82502L14.2251 5.70002L14.4001 5.60002L13.6001 4.40002L13.4251 4.50002L13.2501 4.62502ZM13.5751 6.15002L13.7501 6.02502L12.0251 3.45002L11.8501 3.57502L11.7001 3.67502L13.4001 6.25002L13.5751 6.15002ZM12.9251 6.57502L13.1001 6.45002L12.3001 5.25002L12.1251 5.37502L11.9501 5.47502L12.7501 6.67502L12.9251 6.57502Z" fill="#3E4347"/>
</g>
<defs>
<clipPath id="clip0_2023_1428">
<rect width="16" height="16" fill="white"/>
</clipPath>
</defs>
</svg>
